# xmcd
#
# Track frame offsets:
#	183
#	77193
#	160443
#	217940
#
# Disc length: 4170 seconds
#
# Revision: 1
# Processed by: cddbd v1.4PL0 Copyright (c) Steve Scherf et al.
# Submitted via: audiograbber 1.82.02
#
DISCID=2d104804
DTITLE=Charles Dickens - Oliver Twist [CD2]
DYEAR=1900
DGENRE=
TTITLE0=Honour Amongst Thieves-
TTITLE1=A Savage Deed
TTITLE2=On the Run
TTITLE3=Just Deserts
EXTD=
EXTT0=
EXTT1=
EXTT2=
EXTT3=
PLAYORDER=
